<?xml version="1.0" encoding="iso-8859-1"?>
<!-- Generator: Adobe Illustrator 22.1.0, SVG Export Plug-In . SVG Version: 6.00 Build 0)  -->
<svg xmlns="http://www.w3.org/2000/svg" xmlns:xlink="http://www.w3.org/1999/xlink" version="1.1" id="Layer_3" x="0px" y="0px" viewBox="0 0 64 64" style="enable-background:new 0 0 64 64;" xml:space="preserve" width="512" height="512">
<g>
	<g>
		<circle style="fill:#5F5E5B;" cx="22" cy="34" r="20"/>
	</g>
	<g>
		<path style="fill:#BF890A;" d="M52,50L52,50c1.889-0.63,3.37-2.111,4-4v0v0c0.63,1.889,2.111,3.37,4,4h0h0    c-1.889,0.63-3.37,2.111-4,4v0v0C55.37,52.111,53.889,50.63,52,50L52,50z"/>
	</g>
	<g>
		<path style="fill:#FFB70D;" d="M54.5,48.441c-0.69,0.7-1.542,1.24-2.5,1.559c0.958,0.319,1.81,0.859,2.5,1.559    c0.69-0.7,1.542-1.24,2.5-1.559C56.042,49.681,55.19,49.141,54.5,48.441z"/>
	</g>
	<g>
		<path style="fill:#BF890A;" d="M54,24L54,24c1.889-0.63,3.37-2.111,4-4v0v0c0.63,1.889,2.111,3.37,4,4l0,0l0,0    c-1.889,0.63-3.37,2.111-4,4v0v0C57.37,26.111,55.889,24.63,54,24L54,24z"/>
	</g>
	<g>
		<path style="fill:#FFB70D;" d="M56.5,22.441c-0.69,0.7-1.542,1.24-2.5,1.559c0.958,0.319,1.81,0.859,2.5,1.559    c0.69-0.7,1.542-1.24,2.5-1.559C58.042,23.681,57.19,23.141,56.5,22.441z"/>
	</g>
	<g>
		<path style="fill:#BF890A;" d="M10,6L10,6c1.889-0.63,3.37-2.111,4-4l0,0l0,0c0.63,1.889,2.111,3.37,4,4l0,0l0,0    c-1.889,0.63-3.37,2.111-4,4l0,0l0,0C13.37,8.111,11.889,6.63,10,6L10,6z"/>
	</g>
	<g>
		<path style="fill:#FFB70D;" d="M12.5,4.441C11.81,5.141,10.958,5.681,10,6c0.958,0.319,1.81,0.859,2.5,1.559    c0.69-0.7,1.542-1.24,2.5-1.559C14.042,5.681,13.19,5.141,12.5,4.441z"/>
	</g>
	<g>
		<circle style="fill:#5488AE;" cx="22" cy="34" r="16"/>
	</g>
	<g>
		<ellipse style="fill:#70B5E8;" cx="20.5" cy="34" rx="14.5" ry="15.924"/>
	</g>
	<g>
		<circle style="fill:#694A2B;" cx="42" cy="22" r="4"/>
	</g>
	<g>
		<ellipse style="fill:#8C6239;" cx="40.5" cy="22" rx="2.5" ry="3.703"/>
	</g>
	<g>
		<circle style="fill:#694A2B;" cx="28" cy="22" r="4"/>
	</g>
	<g>
		<ellipse style="fill:#8C6239;" cx="26.5" cy="22" rx="2.5" ry="3.703"/>
	</g>
	<g>
		<polyline style="fill:#95753E;" points="46,21 62,5 59,2 43,18   "/>
	</g>
	<g>
		
			<rect x="40.747" y="10.439" transform="matrix(0.7071 -0.7071 0.7071 0.7071 6.8058 39.4307)" style="fill:#C69C52;" width="20.506" height="2.121"/>
	</g>
	<g>
		<polyline style="fill:#95753E;" points="32,21 48,5 45,2 29,18   "/>
	</g>
	<g>
		
			<rect x="26.747" y="10.439" transform="matrix(0.7071 -0.7071 0.7071 0.7071 2.7053 29.5312)" style="fill:#C69C52;" width="20.506" height="2.121"/>
	</g>
	<g>
		<rect x="16" y="40" style="fill:#BB3835;" width="32" height="16"/>
	</g>
	<g>
		<rect x="16" y="40" style="fill:#F94A46;" width="28" height="16"/>
	</g>
	<g>
		<rect x="22" y="40" style="fill:#8F8D89;" width="4" height="16"/>
	</g>
	<g>
		<rect x="22" y="40" style="fill:#BEBCB6;" width="2" height="16"/>
	</g>
	<g>
		<rect x="38" y="40" style="fill:#8F8D89;" width="4" height="16"/>
	</g>
	<g>
		<rect x="38" y="40" style="fill:#BEBCB6;" width="2" height="16"/>
	</g>
	<g>
		<rect x="12" y="56" style="fill:#5F5E5B;" width="40" height="6"/>
	</g>
	<g>
		<rect x="12" y="56" style="fill:#8F8D89;" width="37" height="6"/>
	</g>
	<g>
		<rect x="12" y="34" style="fill:#5F5E5B;" width="40" height="6"/>
	</g>
	<g>
		<rect x="12" y="34" style="fill:#8F8D89;" width="37" height="6"/>
	</g>
	<g>
		<path d="M52,63H12c-0.552,0-1-0.448-1-1v-6c0-0.552,0.448-1,1-1h40c0.552,0,1,0.448,1,1v6C53,62.552,52.552,63,52,63z M13,61h38    v-4H13V61z"/>
	</g>
	<g>
		<path d="M52,41H12c-0.552,0-1-0.448-1-1v-6c0-0.552,0.448-1,1-1h40c0.552,0,1,0.448,1,1v6C53,40.552,52.552,41,52,41z M13,39h38    v-4H13V39z"/>
	</g>
	<g>
		<path d="M48,57H16c-0.552,0-1-0.448-1-1V40c0-0.552,0.448-1,1-1h32c0.552,0,1,0.448,1,1v16C49,56.552,48.552,57,48,57z M17,55h30    V41H17V55z"/>
	</g>
	<g>
		<path d="M26,57h-4c-0.552,0-1-0.448-1-1V40c0-0.552,0.448-1,1-1h4c0.552,0,1,0.448,1,1v16C27,56.552,26.552,57,26,57z M23,55h2V41    h-2V55z"/>
	</g>
	<g>
		<path d="M42,57h-4c-0.552,0-1-0.448-1-1V40c0-0.552,0.448-1,1-1h4c0.552,0,1,0.448,1,1v16C43,56.552,42.552,57,42,57z M39,55h2V41    h-2V55z"/>
	</g>
	<g>
		<path d="M47.293,50.707L44,47.414l-1.293,1.293l-1.414-1.414l2-2c0.391-0.391,1.023-0.391,1.414,0l4,4L47.293,50.707z"/>
	</g>
	<g>
		<path d="M32,51c-0.256,0-0.512-0.098-0.707-0.293L28,47.414l-1.293,1.293l-1.414-1.414l2-2c0.391-0.391,1.023-0.391,1.414,0    L32,48.586l3.293-3.293c0.391-0.391,1.023-0.391,1.414,0l2,2l-1.414,1.414L36,47.414l-3.293,3.293C32.512,50.902,32.256,51,32,51z    "/>
	</g>
	<g>
		<path d="M16.707,50.707l-1.414-1.414l4-4c0.391-0.391,1.023-0.391,1.414,0l2,2l-1.414,1.414L20,47.414L16.707,50.707z"/>
	</g>
	<g>
		<path d="M39.19,34h-2c0-3.44-1.121-6.685-3.243-9.382l1.572-1.236C37.921,26.435,39.19,30.107,39.19,34z"/>
	</g>
	<g>
		<path d="M15.629,49.971C9.057,47.347,4.81,41.078,4.81,34c0-9.479,7.711-17.19,17.19-17.19c1.437,0,2.866,0.178,4.247,0.529    l-0.493,1.938c-1.219-0.31-2.482-0.467-3.753-0.467c-8.376,0-15.19,6.814-15.19,15.19c0,6.254,3.753,11.794,9.561,14.114    L15.629,49.971z"/>
	</g>
	<g>
		<path d="M43,34h-2c0-2.811-0.599-5.517-1.781-8.042l1.812-0.848C42.337,27.902,43,30.894,43,34z"/>
	</g>
	<g>
		<path d="M15.7,54.039C6.908,51.276,1,43.224,1,34c0-11.58,9.42-21,21-21c3.324,0,6.504,0.754,9.451,2.242l-0.901,1.785    C27.885,15.682,25.008,15,22,15C11.523,15,3,23.523,3,34c0,8.346,5.345,15.632,13.3,18.13L15.7,54.039z"/>
	</g>
	<g>
		<path d="M32.707,21.707l-1.414-1.414L46.586,5L45,3.414L29.707,18.707l-1.414-1.414l16-16c0.391-0.391,1.023-0.391,1.414,0l3,3    c0.391,0.391,0.391,1.023,0,1.414L32.707,21.707z"/>
	</g>
	<g>
		<path d="M28,27c-2.757,0-5-2.243-5-5s2.243-5,5-5s5,2.243,5,5S30.757,27,28,27z M28,19c-1.654,0-3,1.346-3,3s1.346,3,3,3    s3-1.346,3-3S29.654,19,28,19z"/>
	</g>
	<g>
		<path d="M46.707,21.707l-1.414-1.414L60.586,5L59,3.414L43.707,18.707l-1.414-1.414l16-16c0.391-0.391,1.023-0.391,1.414,0l3,3    c0.391,0.391,0.391,1.023,0,1.414L46.707,21.707z"/>
	</g>
	<g>
		<path d="M42,27c-2.757,0-5-2.243-5-5s2.243-5,5-5s5,2.243,5,5S44.757,27,42,27z M42,19c-1.654,0-3,1.346-3,3s1.346,3,3,3    s3-1.346,3-3S43.654,19,42,19z"/>
	</g>
	<g>
		<path d="M58,29c-0.431,0-0.812-0.275-0.949-0.684c-0.527-1.582-1.786-2.84-3.367-3.367C53.275,24.812,53,24.431,53,24    s0.275-0.812,0.684-0.949c1.582-0.527,2.84-1.786,3.367-3.367C57.188,19.275,57.569,19,58,19s0.812,0.275,0.949,0.684    c0.527,1.582,1.786,2.84,3.367,3.367C62.725,23.188,63,23.569,63,24s-0.275,0.812-0.684,0.949    c-1.582,0.527-2.84,1.786-3.367,3.367C58.812,28.725,58.431,29,58,29z M56.196,24c0.701,0.492,1.312,1.103,1.804,1.804    c0.492-0.701,1.103-1.312,1.804-1.804c-0.701-0.492-1.312-1.103-1.804-1.804C57.508,22.897,56.897,23.508,56.196,24z"/>
	</g>
	<g>
		<path d="M14,11c-0.431,0-0.812-0.275-0.949-0.684c-0.527-1.582-1.786-2.84-3.367-3.367C9.275,6.812,9,6.431,9,6    s0.275-0.812,0.684-0.949c1.582-0.527,2.84-1.786,3.367-3.367C13.188,1.275,13.569,1,14,1s0.812,0.275,0.949,0.684    c0.527,1.582,1.786,2.84,3.367,3.367C18.725,5.188,19,5.569,19,6s-0.275,0.812-0.684,0.949c-1.582,0.527-2.84,1.786-3.367,3.367    C14.812,10.725,14.431,11,14,11z M12.196,6C12.897,6.492,13.508,7.103,14,7.804C14.492,7.103,15.103,6.492,15.804,6    C15.103,5.508,14.492,4.897,14,4.196C13.508,4.897,12.897,5.508,12.196,6z"/>
	</g>
	<g>
		<path d="M56,55c-0.431,0-0.812-0.275-0.949-0.684c-0.527-1.582-1.786-2.84-3.367-3.367C51.275,50.812,51,50.431,51,50    s0.275-0.812,0.684-0.949c1.582-0.527,2.84-1.786,3.367-3.367C55.188,45.275,55.569,45,56,45s0.812,0.275,0.949,0.684    c0.527,1.582,1.786,2.84,3.367,3.367C60.725,49.188,61,49.569,61,50s-0.275,0.812-0.684,0.949    c-1.582,0.527-2.84,1.786-3.367,3.367C56.812,54.725,56.431,55,56,55z M54.196,50c0.701,0.492,1.312,1.103,1.804,1.804    c0.492-0.701,1.103-1.312,1.804-1.804c-0.701-0.492-1.312-1.103-1.804-1.804C55.508,48.897,54.897,49.508,54.196,50z"/>
	</g>
</g>
</svg>
